<?xml version="1.0" encoding="UTF-8"?>
<svg id="Capa_1" data-name="Capa 1" xmlns="http://www.w3.org/2000/svg" viewBox="0 0 810.76 867.91">
  <defs>
    <style>
      .cls-1 {
        fill: #2c50ff;
      }

      .cls-2 {
        fill: #ffa143;
      }

      .cls-3 {
        fill: #3f3f3f;
      }

      .cls-4 {
        fill: #ff456d;
      }
    </style>
  </defs>
  <path class="cls-3" d="M737.9,125.73c21.88,21.65,53.26,56.84,67.24,84.36,6.08,11.97,9.36,21.05-1.54,31.93l-223.91,127.63c-18.56,3.03-23.86-17.82-33.7-29.79-71.79-87.29-212.19-62.29-249.58,43.83-53.47,151.76,140.8,266.92,250.63,140.56,9.66-11.12,13.75-29.27,32.62-27.01,4.8.57,19.97,10.11,25.63,13.14,67.06,35.93,130.87,78.49,198.09,114.23,8.16,9.18,9.28,15.97,4.43,27.17-20.76,47.96-93.42,116.18-137.16,144.78C368.58,994.11-27.37,755.64,1.49,397.75,30.94,32.6,476.14-133.27,737.9,125.73ZM563.42,60.78c-82.53-27.92-172.48-29.04-255.31-1.4C167.91,106.16,39.26,247.53,57.71,403.29c21.14,178.4,211.6,290.48,376.32,214.58-158.43-2.49-223.62-173.84-196.02-309.96,29.18-143.91,169.62-259.45,318.9-245.47,2.15.2,6.94,1.77,6.5-1.68ZM726.76,175.5c-162.57-152.38-424.49-56.64-452.98,161.4,18.58-24.76,38.07-47.45,65.05-63.35,68.19-40.18,155.99-32.77,215.86,18.99,5.3,4.58,27.51,30.44,30.07,30.04l177.51-101.64c.59-2.16-.03-3.73-.93-5.66-3.77-8.09-26.82-32.52-34.57-39.79ZM762.2,646.04l-178.54-102.25c-122.55,182.97-394.46,183.25-516.16-1.59l-19.66-33.42c35.7,194.64,213.05,329.24,410.42,318.71,109.89-5.86,230.29-70.07,293.33-160.49,2.32-3.32,12.72-18,10.61-20.96Z"/>
  <path class="cls-1" d="M563.42,60.78c.44,3.45-4.35,1.88-6.5,1.68-149.28-13.98-289.72,101.56-318.9,245.47-27.6,136.11,37.58,307.47,196.02,309.96-164.73,75.9-355.19-36.19-376.32-214.58C39.26,247.53,167.91,106.16,308.11,59.38c82.82-27.64,172.78-26.52,255.31,1.4Z"/>
  <path class="cls-2" d="M762.2,646.04c2.11,2.95-8.29,17.63-10.61,20.96-63.04,90.42-183.44,154.63-293.33,160.49-197.38,10.53-374.73-124.07-410.42-318.71l19.66,33.42c121.7,184.84,393.61,184.56,516.16,1.59l178.54,102.25Z"/>
  <path class="cls-4" d="M726.76,175.5c7.75,7.27,30.8,31.7,34.57,39.79.9,1.93,1.52,3.5.93,5.66l-177.51,101.64c-2.55.4-24.77-25.46-30.07-30.04-59.86-51.76-147.67-59.17-215.86-18.99-26.98,15.9-46.47,38.59-65.05,63.35,28.5-218.04,290.41-313.78,452.98-161.4Z"/>
</svg>